# xmcd CD database file
#
# Track frame offsets:
#	150
#	34339
#	65647
#	95652
#	131203
#	173853
#	201764
#	221616
#
# Disc length: 3341 seconds
#
# Revision: 0
# Processed by: cddbd v1.5.2PL0 Copyright (c) Steve Scherf et al.
# Submitted via: CDex 2.00
#
DISCID=7d0d0b08
DTITLE=Wild Flower Sextet - Wild Flower
DYEAR=2014
DGENRE=Jazz
TTITLE0=Blues For Wayne
TTITLE1=Sfumato
TTITLE2=Masqualero
TTITLE3=Burning Man
TTITLE4=J.G.
TTITLE5=Fall
TTITLE6=Three Clowns
TTITLE7=Lester Left Town
EXTD=YEAR: 2014
EXTT0=
EXTT1=
EXTT2=
EXTT3=
EXTT4=
EXTT5=
EXTT6=
EXTT7=
PLAYORDER=
